<?xml version="1.0" encoding="UTF-8"?>
<svg width="128px" height="128px" viewBox="0 0 128 128" version="1.1" xmlns="http://www.w3.org/2000/svg" xmlns:xlink="http://www.w3.org/1999/xlink">
    <title>App Icon</title>
    <defs>
        <linearGradient x1="50%" y1="-4.79431152%" x2="50%" y2="100%" id="linearGradient-1">
            <stop stop-color="#A3D7E3" offset="0%"></stop>
            <stop stop-color="#397A8E" offset="100%"></stop>
        </linearGradient>
    </defs>
    <g id="Page-1" stroke="none" stroke-width="1" fill="none" fill-rule="evenodd">
        <g id="Application-Icon" transform="translate(-499.000000, -407.000000)">
            <g id="App-Icon" transform="translate(499.000000, 407.000000)">
                <rect id="Rectangle" fill="url(#linearGradient-1)" x="0" y="0" width="128" height="128" rx="28"></rect>
                <g id="Logo-Copy" transform="translate(18.000000, 29.000000)" fill="#FFFFFF" fill-rule="nonzero">
                    <path d="M92.825657,23.4958217 C92.6299578,21.643454 91.1622143,20.0835655 89.2052228,19.8885794 C88.6181254,19.7910864 76.4847785,18.718663 64.938529,23.3008357 C60.5352983,10.4317549 49.6739958,1.36490251 49.0868984,0.877437326 C47.6191548,-0.292479109 45.4664642,-0.292479109 43.9987206,0.877437326 C43.4116232,1.36490251 32.5503207,10.4317549 28.14709,23.3008357 C16.6008405,18.718663 4.46749363,19.7910864 3.78254662,19.8885794 C1.92340476,20.0835655 0.357811609,21.545961 0.162112466,23.4958217 C0.0642628937,24.4707521 -1.89272854,46.4066852 10.9255654,59.178273 C20.5148234,68.7325905 35.3879583,70 42.5309771,70 C44.5858181,70 48.4019514,70 50.3589428,70 C57.5998111,70 72.3750965,68.7325905 81.9643545,59.178273 C94.9783476,46.3091922 92.9235065,24.3732591 92.825657,23.4958217 Z M46.5428095,9.35933148 C49.8696949,12.6740947 55.4471205,19.2061281 57.7955103,27.005571 C56.3277667,28.0779944 54.8600231,29.1504178 53.4901291,30.5153203 C50.3589428,33.6350975 48.2062522,37.2423398 46.5428095,40.9470752 C44.9772164,37.2423398 42.7266762,33.6350975 39.5954899,30.5153203 C38.2255959,29.1504178 36.7578523,28.0779944 35.2901087,27.005571 C37.6384985,19.3036212 43.2159241,12.7715877 46.5428095,9.35933148 Z M8.08792778,27.6880223 C14.0567517,27.6880223 26.4836473,28.7604457 34.0180643,36.1699164 C41.5524813,43.6768802 42.5309771,55.9610028 42.5309771,62.005571 C36.5621532,62.005571 24.1352576,60.9331476 16.6008405,53.5236769 C9.0664235,46.0167131 8.08792778,33.6350975 8.08792778,27.6880223 Z M76.4847785,53.5236769 C68.9503614,61.0306407 56.6213154,62.005571 50.5546419,62.005571 C50.5546419,61.908078 50.5546419,61.810585 50.5546419,61.7130919 C50.5546419,55.6685237 51.6309872,43.5793872 59.1654043,36.1699164 C66.6998213,28.6629526 79.1267169,27.6880223 85.0955408,27.6880223 C84.9976912,33.6350975 84.0191955,46.0167131 76.4847785,53.5236769 Z" id="Shape"></path>
                </g>
            </g>
        </g>
    </g>
</svg>