<?xml version="1.0" encoding="UTF-8"?>
<svg width="136px" height="32px" viewBox="0 0 136 32" version="1.1" xmlns="http://www.w3.org/2000/svg" xmlns:xlink="http://www.w3.org/1999/xlink">
    <title>Logo</title>
    <g id="Zeroheight-Styles" stroke="none" stroke-width="1" fill="none" fill-rule="evenodd">
        <g id="Artboard" transform="translate(-893.000000, -571.000000)" fill="#FFFFFF">
            <g id="Logo" transform="translate(893.000000, 571.000000)">
                <path d="M42.9193898,10.7409471 C42.8289052,9.89415042 42.1502711,9.1810585 41.2454256,9.09192201 C40.973972,9.04735376 35.3639298,8.55710306 30.0253414,10.6518106 C27.989439,4.76880223 22.9675464,0.623955432 22.6960928,0.401114206 C22.0174587,-0.133704735 21.0221286,-0.133704735 20.3434945,0.401114206 C20.0720408,0.623955432 15.0501483,4.76880223 13.0142459,10.6518106 C7.67565745,8.55710306 2.06561533,9.04735376 1.74891941,9.09192201 C0.889316178,9.1810585 0.165439776,9.84958217 0.074955226,10.7409471 C0.0297129509,11.1866295 -0.875132552,21.2144847 5.05160549,27.0529248 C9.48534845,31.4206128 16.3621743,32 19.6648604,32 C20.6149481,32 22.3793969,32 23.2842424,32 C26.6321707,32 33.4637543,31.4206128 37.8974972,27.0529248 C43.9147198,21.1699164 42.9646321,11.1420613 42.9193898,10.7409471 Z M21.5197936,4.27855153 C23.058031,5.79387187 25.6368407,8.77994429 26.7226553,12.3454039 C26.0440212,12.8356546 25.365387,13.3259053 24.7319952,13.9498607 C23.2842424,15.3760446 22.2889123,17.0250696 21.5197936,18.718663 C20.7959172,17.0250696 19.7553449,15.3760446 18.3075921,13.9498607 C17.6742003,13.3259053 16.9955661,12.8356546 16.316932,12.3454039 C17.4027466,8.82451253 19.9815563,5.83844011 21.5197936,4.27855153 Z M3.73957951,12.6573816 C6.4993583,12.6573816 12.2451272,13.1476323 15.7287824,16.5348189 C19.2124376,19.9665738 19.6648604,25.5821727 19.6648604,28.3454039 C16.9050816,28.3454039 11.1593126,27.8551532 7.67565745,24.4679666 C4.19200226,21.0362117 3.73957951,15.3760446 3.73957951,12.6573816 Z M35.3639298,24.4679666 C31.8802746,27.8997214 26.179748,28.3454039 23.3747269,28.3454039 C23.3747269,28.3008357 23.3747269,28.2562674 23.3747269,28.2116992 C23.3747269,25.448468 23.8723919,19.9220056 27.3560471,16.5348189 C30.8397023,13.1030641 36.5854713,12.6573816 39.34525,12.6573816 C39.3000078,15.3760446 38.847585,21.0362117 35.3639298,24.4679666 Z" id="Shape" fill-rule="nonzero"></path>
                <text id="zenfit" font-family="Poppins-Bold, Poppins" font-size="28" font-weight="bold" line-spacing="28" letter-spacing="0.746666667">
                    <tspan x="51" y="29">zenfit</tspan>
                </text>
            </g>
        </g>
    </g>
</svg>